<?xml version="1.0" encoding="UTF-8" standalone="no"?>
<!-- Created with Inkscape (http://www.inkscape.org/) -->

<svg
   version="1.1"
   id="svg1"
   width="560"
   height="496"
   viewBox="0 0 560 496"
   xmlns="http://www.w3.org/2000/svg"
   xmlns:svg="http://www.w3.org/2000/svg">
  <defs
     id="defs1" />
  <g
     id="g1">
    <path
       style="fill:currentColor;stroke:currentColor;stroke-width:28;stroke-dasharray:none;stroke-opacity:1"
       d="m 165.33333,481.98029 c -26.6805,-6.53992 -65.593845,-37.3399 -82.574531,-65.3579 -14.718335,-24.28514 -16.130241,-49.65142 -3.838653,-68.96519 7.557614,-11.87528 21.413994,-23.14005 39.056204,-31.75138 8.81301,-4.30171 20.21134,-8.94851 25.32962,-10.32622 l 9.30597,-2.50492 -17.30597,-0.76376 C 74.621795,299.63278 33.100183,266.12436 24.741463,213.08409 19.453447,179.52898 11.459411,80.982695 12.431501,61.333333 13.331363,43.14394 16.930063,32.408994 25.031261,23.748158 39.656479,8.1126173 63.844844,8.1366459 96.675124,23.819329 122.03172,35.93191 142.50311,51.813374 172.70809,82.804807 209.04148,120.08423 250.01117,174.90438 272,215.66397 c 4.03333,7.47639 7.71054,13.61052 8.17157,13.6314 0.46103,0.0209 1.60648,-1.81673 2.54544,-4.08358 2.90416,-7.01127 19.12332,-33.56956 32.68312,-53.51744 23.64165,-34.77932 47.21109,-63.89841 73.02938,-90.224822 29.03753,-29.609006 49.47403,-45.3808 74.47273,-57.474051 50.98859,-24.66599695 81.98649,-10.997649 84.67701,37.337856 0.9901,17.787256 -6.87816,114.956597 -12.21056,150.794727 -3.45997,23.25386 -13.33786,43.04448 -28.98249,58.06723 -21.21152,20.36835 -46.7785,30.42597 -81.71953,32.14709 -9.53334,0.46959 -16.13334,1.08922 -14.66667,1.37695 7.26232,1.42473 24.03122,7.95685 35.66073,13.89121 17.80722,9.08674 31.09248,21.47926 37.99156,35.43859 4.88245,9.87897 5.01438,10.53359 5.01438,24.88172 0,12.93551 -0.43093,15.75861 -3.52719,23.10754 -6.19316,14.69938 -12.11225,23.11668 -27.39263,38.95395 -55.48718,57.50939 -104.8329,58.54217 -143.23073,2.99775 -9.42685,-13.63642 -20.83314,-36.8726 -27.91268,-56.86195 -3.26523,-9.21949 -6.23677,-16.75631 -6.60344,-16.74849 -0.36667,0.008 -3.58212,7.9506 -7.14546,17.65062 -7.76206,21.12968 -17.19632,40.44647 -26.8811,55.03947 -8.29881,12.50462 -25.08136,29.02858 -34.75522,34.21971 -13.76164,7.3847 -30.50356,9.4611 -45.88489,5.69084 z m 30.85931,-3.08757 c 16.24238,-4.50387 30.08737,-15.2217 44.21228,-34.22605 9.50197,-12.78442 23.88651,-41.85591 31.82652,-64.32212 3.91134,-11.06713 6.41247,-16.32056 7.76856,-16.31728 1.35851,0.003 3.91961,5.45236 7.98483,16.98878 7.89187,22.39582 21.88188,50.54718 31.66503,63.7179 14.06077,18.92953 27.93145,29.65943 44.1575,34.15877 11.18077,3.10034 17.29275,3.07318 29.82689,-0.13251 19.07431,-4.87839 36.00041,-15.38549 56.67291,-35.18046 26.01568,-24.91134 37.82132,-48.08993 35.93766,-70.55819 -4.98965,-59.51663 -104.67313,-70.48752 -92.56183,-71.39315 13.6172,-1.01824 30.74966,4.72548 73.65034,-10.61344 22.92204,-8.19566 43.52854,-25.5123 53.56706,-45.01497 10.09431,-19.61107 11.56597,-26.83165 16.98459,-83.33333 6.33735,-66.081563 8.05245,-96.158911 6.19514,-108.642897 -3.80813,-25.596523 -17.11913,-39.383703 -37.98879,-39.347765 -18.34732,0.0316 -49.98193,13.66129 -74.758,32.209304 C 414.7983,59.263875 379.52781,93.786803 362.76534,114 c -27.39319,33.03237 -56.19225,74.16768 -72.04601,102.90738 -4.37681,7.93428 -8.57917,15.32595 -9.33858,16.42595 -1.70635,2.47163 -1.08305,3.32987 -13.55676,-18.66666 C 240.6708,166.78387 203.82121,118.38471 164.72602,79.25521 138.98819,53.494794 119.93234,38.848199 98,27.968649 64.614644,11.407823 42.097401,10.57662 27.747513,25.375347 16.443752,37.032669 13.227355,54.391809 15.885162,89.39736 c 5.215499,68.69251 9.692921,113.31168 12.971574,129.26655 6.751875,32.85657 30.292192,57.84867 61.246554,71.42326 41.58441,18.23624 51.92786,11.50641 76.21372,11.54741 8.3395,0.0141 -88.978631,13.26943 -92.667999,72.21677 -1.41589,22.62257 10.041808,44.77778 36.060469,69.7284 20.34881,19.51352 37.47003,30.22522 56.13128,35.11794 12.14753,3.1849 19.40138,3.23152 30.35188,0.19503 z"
       id="path1" />
  </g>
</svg>
