<?xml version="1.0" encoding="UTF-8" standalone="no"?>
<!-- Created with Inkscape (http://www.inkscape.org/) -->

<svg
   version="1.1"
   id="svg1"
   width="632"
   height="500"
   viewBox="0 0 632 500"
   xmlns="http://www.w3.org/2000/svg"
   xmlns:svg="http://www.w3.org/2000/svg">
  <defs
     id="defs1" />
  <g
     id="g1">
    <path
       style="fill:currentColor;stroke:currentColor;stroke-width:11.2;stroke-dasharray:none;stroke-opacity:1"
       d="M 181.60285,466.96892 C 150.71938,462.14961 112.55705,447.68613 88.46502,431.66978 72.900114,421.32225 50.379238,398.05707 41.030794,382.66788 21.733376,350.90091 9.9604772,304.81376 12.31329,270.24806 18.811842,174.77642 108.38055,94.266102 254.40285,52.641862 c 52.03556,-14.83295 85.35073,-19.558575 138.13334,-19.593673 58.46946,-0.03892 87.72283,5.666693 127.86666,24.939133 45.4,21.79585 73.70882,54.348228 89.47355,102.885818 15.30344,47.11739 13.2104,92.79378 -6.03271,131.65162 -3.79914,7.67161 -8.1675,14.1735 -9.7075,14.44864 -1.80005,0.32161 -4.09857,-2.67827 -6.43615,-8.4 -7.47822,-18.30452 -29.10546,-33.29663 -58.89719,-40.8278 -21.13958,-5.34396 -66.50422,-4.95316 -86.44407,0.74468 -19.20429,5.48767 -31.54503,11.91784 -42.45122,22.11929 -13.7172,12.83085 -17.48611,22.21261 -17.51405,43.59691 -0.0249,19.10745 2.39128,26.31997 13.06833,39.0089 15.81377,18.79361 52.31634,31.92444 88.74721,31.92444 11.50644,0 14.72714,0.5821 14.72714,2.66176 0,3.18924 -39.65828,23.70073 -66.49342,34.39079 -38.21478,15.22325 -92.86368,29.48876 -133.49742,34.84807 -26.29937,3.46871 -94.92378,3.42688 -117.3425,-0.0715 z m 126,-6.27273 c 59.1109,-9.63864 109.41802,-25.25825 156.8,-48.68406 l 26.13334,-12.92042 -16.21751,-0.10934 c -32.00447,-0.21566 -61.44391,-11.20536 -80.16345,-29.9249 -14.29659,-14.29659 -18.38284,-27.00533 -16.52161,-51.38438 1.60412,-21.01148 5.39125,-28.81388 20.71768,-42.68351 12.52015,-11.33009 30.58836,-19.66286 50.61777,-23.34409 59.09514,-10.86119 116.81331,3.99904 138.48416,35.65441 8.3543,12.20343 8.19463,12.27149 16.32502,-6.96014 8.28642,-19.60073 9.96667,-29.81046 9.83058,-59.73334 -0.1008,-22.14483 -0.94954,-31.15558 -4.05912,-43.09036 -19.66906,-75.49133 -66.91852,-116.977778 -154.4802,-135.638268 -27.0556,-5.76589 -96.04007,-5.74391 -128.8,0.041 -95.40916,16.84791 -165.84656,44.75999 -224.55363,88.983398 -36.09284,27.18838 -63.80437,62.8953 -76.079962,98.03071 -20.3103242,58.13263 -1.530718,135.90397 43.434202,179.87258 29.66985,29.01244 78.12057,49.79016 129.33273,55.46333 22.95384,2.54278 83.93015,0.54782 109.2,-3.57269 z m -114.8,-64.64559 c -34.96087,-6.09264 -58.23429,-20.61223 -70.27775,-43.84412 -4.76018,-9.18242 -5.32152,-12.13946 -5.31534,-28 0.006,-14.60056 0.78144,-19.4487 4.39116,-27.44335 5.80378,-12.85396 21.33418,-27.33935 36.85856,-34.37844 46.37592,-21.02784 130.00446,-15.62627 164.4145,10.61955 3.40754,2.59906 6.19553,5.96807 6.19553,7.48669 0,2.79095 -32.62195,24.98624 -36.78377,25.02689 -1.23774,0.0126 -5.3509,-2.08203 -9.14036,-4.65364 -10.56229,-7.16776 -23.99947,-10.56044 -46.06955,-11.63183 -31.60235,-1.53413 -50.84101,3.7464 -62.64972,17.19578 -5.02927,5.72803 -5.88992,8.15861 -5.88992,16.63392 0,11.40055 4.69096,19.96287 14.59263,26.6356 12.74557,8.58925 47.58715,12.54252 71.48592,8.11108 5.53012,-1.02541 16.19488,-4.87606 23.69944,-8.55698 7.50457,-3.68092 14.68149,-6.29472 15.94871,-5.80844 6.76039,2.59421 34.80662,22.21601 34.80662,24.35153 0,8.17565 -33.07998,22.75781 -64.4,28.3885 -18.10595,3.25508 -52.79438,3.191 -71.86666,-0.13272 z m 79.90636,-6.64125 c 16.79059,-3.88015 39.71504,-12.83216 46.75298,-18.25703 l 4.39268,-3.3859 -13.88366,-8.65331 c -18.30046,-11.40617 -19.07215,-11.62728 -25.24377,-7.23269 -2.90104,2.06571 -10.6737,5.57466 -17.27262,7.79768 -10.72404,3.61266 -15.07657,3.96793 -40.99165,3.34587 -26.47373,-0.63546 -29.88596,-1.11483 -39.26032,-5.51551 -16.71179,-7.84514 -24.26666,-18.26945 -24.26666,-33.48345 0,-24.81437 20.95177,-38.53007 61.6,-40.32535 27.8635,-1.23061 46.74425,2.93526 64.47897,14.22672 3.39571,2.16201 5.50792,1.35073 19.329,-7.42405 l 15.51668,-9.85128 -4.39567,-3.55482 c -20.31789,-16.4313 -69.49444,-26.34814 -109.75382,-22.13274 -42.93323,4.49536 -70.84373,18.88012 -82.47633,42.50736 -3.72234,7.56056 -4.43217,11.84233 -4.43217,26.73563 0,16.12985 0.49591,18.62851 5.4844,27.6333 9.7594,17.61679 27.49615,29.6562 54.24894,36.82325 26.20853,7.02125 61.74672,7.31537 90.17302,0.74632 z m 190.97432,-27.98043 c -13.54355,-2.42209 -27.75024,-10.46834 -33.30585,-18.86344 -9.39888,-14.20267 -7.28064,-32.53555 4.97095,-43.02246 12.41254,-10.62469 23.68277,-13.60362 51.45422,-13.60035 26.3201,0.003 34.89777,1.75356 46.97876,9.58702 10.44424,6.77218 15.55641,16.28489 15.54759,28.93095 -0.0112,15.90544 -8.90875,26.77921 -27.94341,34.14943 -10.00479,3.87385 -42.83507,5.47766 -57.70226,2.81885 z m 40.69975,-3.86477 c 28.75143,-4.9353 44.63218,-21.21859 39.45291,-40.45295 -3.8594,-14.33266 -18.09296,-23.31989 -42.58711,-26.88994 -27.46126,-4.00252 -57.65264,4.47398 -67.17957,18.86127 -5.86299,8.85411 -5.68642,21.40316 0.42773,30.40096 10.36235,15.24957 40.68179,23.09371 69.88604,18.08066 z"
       id="path1" />
  </g>
</svg>
