<?xml version="1.0" encoding="UTF-8" standalone="no"?>
<svg
   xmlns:dc="http://purl.org/dc/elements/1.1/"
   xmlns:cc="http://creativecommons.org/ns#"
   xmlns:rdf="http://www.w3.org/1999/02/22-rdf-syntax-ns#"
   xmlns:svg="http://www.w3.org/2000/svg"
   xmlns="http://www.w3.org/2000/svg"
   xmlns:sodipodi="http://sodipodi.sourceforge.net/DTD/sodipodi-0.dtd"
   xmlns:inkscape="http://www.inkscape.org/namespaces/inkscape"
   inkscape:version="1.0 (4035a4f, 2020-05-01)"
   height="300"
   width="300"
   sodipodi:docname="deviantart.svg"
   id="svg835"
   version="1.1"
   viewBox="-88 1 300 300">
  <metadata
     id="metadata841">
    <rdf:RDF>
      <cc:Work
         rdf:about="">
        <dc:format>image/svg+xml</dc:format>
        <dc:type
           rdf:resource="http://purl.org/dc/dcmitype/StillImage" />
        <dc:title></dc:title>
      </cc:Work>
    </rdf:RDF>
  </metadata>
  <defs
     id="defs839" />
  <sodipodi:namedview
     inkscape:current-layer="layer1"
     inkscape:window-maximized="0"
     inkscape:window-y="23"
     inkscape:window-x="0"
     inkscape:cy="255.9995"
     inkscape:cx="255.5"
     inkscape:zoom="0.48641515"
     showgrid="false"
     id="namedview837"
     inkscape:window-height="480"
     inkscape:window-width="820"
     inkscape:pageshadow="2"
     inkscape:pageopacity="0"
     guidetolerance="10"
     gridtolerance="10"
     objecttolerance="10"
     borderopacity="1"
     bordercolor="#666666"
     pagecolor="#ffffff" />
  <g
     inkscape:label="Layer 1"
     id="layer1"
     inkscape:groupmode="layer">
    <path
       d="M 168.08494,56.505145 V 26.181477 c 0,-11.065803 -9.83075,-20.069767 -21.91804,-20.069767 h -36.33438 c -10.352614,0 -19.736394,5.232033 -24.488694,13.656379 l -19.65424,34.832287 c -1.4037,2.486597 -4.17487,4.030767 -7.231124,4.030767 h -69.455479 c -15.199123,0 -27.564267,11.32464 -27.564267,25.242069 v 36.230448 c 0,13.91744 12.365144,25.24208 27.564267,25.24208 h 25.4865 l -49.975185,88.5751 c -2.012538,3.56398 -3.075582,7.57041 -3.075582,11.58569 v 25.33056 c 0,13.91964 12.365144,25.24207 27.564267,25.24207 h 30.584282 c 10.35502,0 19.738809,-5.23203 24.4911,-13.65638 l 19.654251,-34.83229 c 1.4037,-2.4866 4.17245,-4.03076 7.2287,-4.03076 h 69.559364 c 15.19912,0 27.56426,-11.32465 27.56426,-25.24208 v -36.23043 c 0,-13.91744 -12.36514,-25.24208 -27.56426,-25.24208 h -25.58797 l 50.07665,-88.754306 c 2.01254,-3.566191 3.07558,-7.572621 3.07558,-11.585689 z m -18.57187,0 c 0,1.309667 -0.34791,2.61491 -1.00264,3.778568 L 96.723236,152.06884 c -2.63344,4.6679 -2.42567,10.13222 0.5581,14.61872 2.983774,4.48649 8.190284,7.16556 13.925894,7.16556 h 29.31345 c 4.95765,0 8.99239,3.6945 8.99239,8.2341 v 36.23043 c 0,4.5396 -4.03474,8.2341 -8.99239,8.2341 H 70.961316 c -10.031271,0 -19.125139,5.07054 -23.727642,13.23163 l -19.654245,34.83227 c -1.551078,2.74986 -4.612165,4.45553 -7.989749,4.45553 H -10.9946 c -4.960071,0 -8.992393,-3.69228 -8.992393,-8.23409 v -25.33056 c 0,-1.30967 0.34549,-2.61712 1.002645,-3.77856 l 51.6833,-91.60815 c 2.633457,-4.66569 2.425679,-10.13001 -0.558096,-14.6165 -2.983773,-4.48651 -8.190277,-7.16556 -13.925885,-7.16556 H -10.9946 c -4.960071,0 -8.992393,-3.6945 -8.992393,-8.2341 V 83.873212 c 0,-4.541801 4.032322,-8.234095 8.992393,-8.234095 h 69.453062 c 10.033694,0 19.127554,-5.070534 23.730064,-13.233832 L 101.84277,27.572999 c 1.55108,-2.747646 4.61217,-4.455524 7.98975,-4.455524 h 36.33438 c 1.84341,0 3.34617,1.376037 3.34617,3.064002 z m 0,0"
       id="path833"
       style="stroke-width:0.591846" />
  </g>
  <g
     inkscape:label="Layer 2"
     id="layer2"
     inkscape:groupmode="layer" />
</svg>
