<svg xmlns="http://www.w3.org/2000/svg" viewBox="0 4 26 16">
    <path 
        d="M2.999 19.5a.803.803 0 0 1-.049-.002c-.948-.094-2.78-.821-2.928-2.909-.059-4.105.019-10.797.02-10.864C.1 5.112.483 4.5 1.193 4.5h17.536c.102.009 4.345.558 5.147 4.608.355 1.794-.063 3.491-1.179 4.779-1.194 1.378-3.066 2.151-5.193 2.161-.119 1.899-1.154 3.099-2.956 3.399C10.925 19.479 3 19.5 3 19.5h-.001zM18.67 5.496 1.193 5.5c-.107 0-.153.281-.154.284.002.02-.075 6.698-.018 10.763.118 1.651 1.783 1.924 2.007 1.953.532-.002 8.019-.022 11.435-.045 1.372-.235 2.089-1.216 2.051-2.907-.003-.139.052-.272.152-.369s.238-.153.375-.141c2.029.1 3.814-.552 4.901-1.805.91-1.05 1.249-2.446.955-3.932-.664-3.344-4.191-3.8-4.227-3.805zM8.785 16.614a.817.817 0 0 1-.36-.084c-.188-.126-.236-.176-.236-.176a36.76 36.76 0 0 0-.663-.592c-1.386-1.224-2.778-2.469-3.248-3.08-.851-1.106-1.111-2.97-.048-4.051.524-.533 1.304-.839 2.178-.826a3.745 3.745 0 0 1 2.363.871c.621-.502 1.95-1.306 3.509-.666.889.366 1.486 1.038 1.683 1.894.219.955-.09 2.047-.807 2.849-1.201 1.34-3.779 3.59-3.888 3.685a.718.718 0 0 1-.483.176zm-.167-.935a.259.259 0 0 0-.018.016l.018-.016zm.266-.043h.01-.01zM4.943 9.332c-.726.737-.393 2.065.127 2.741.451.586 2.186 2.117 3.118 2.94.25.221.457.403.589.523.613-.541 2.649-2.354 3.635-3.452.496-.555.723-1.324.577-1.958-.124-.538-.5-.949-1.088-1.192-1.482-.604-2.752.746-2.764.758-.095.104-.221.183-.368.162a.5.5 0 0 1-.362-.155c-.544-.57-1.256-.887-2.007-.894-.568-.008-1.121.186-1.457.527zm12.748 4.076c-.394 0-.64-.026-.658-.028a.5.5 0 0 1-.445-.497V7.682a.5.5 0 0 1 .5-.5h1.696c.043 0 .087.006.129.017.782.209 2.26 1.083 2.26 2.898 0 1.67-.782 2.76-2.326 3.238a9.234 9.234 0 0 1-1.156.073zm-.103-.998c.273.006.645-.001 1.053-.049 1.033-.329 1.533-1.033 1.533-2.265 0-1.346-1.194-1.824-1.464-1.915h-1.121v4.229z"
        fill="currentColor"
        />
</svg>