<?xml version="1.0" encoding="UTF-8" standalone="no"?>
<!-- Created with Inkscape (http://www.inkscape.org/) -->

<svg
   version="1.1"
   id="svg1"
   width="510.66699"
   height="550.66699"
   viewBox="0 0 510.66699 550.66699"
   xmlns="http://www.w3.org/2000/svg"
   xmlns:svg="http://www.w3.org/2000/svg">
  <defs
     id="defs1" />
  <g
     id="g1">
    <path
       style="fill:none;stroke:#000000;stroke-width:18;stroke-dasharray:none;stroke-opacity:1"
       d="m 314.19986,534.92171 c -13.29679,-6.14332 -17.33591,-13.53571 -20.91119,-38.27172 -1.62792,-11.26293 1.47682,-48.25293 6.13055,-73.03951 0.53909,-2.87128 13.51142,-71.45573 32.11049,-112.11732 1.83141,-4.00387 4.78172,-10.71543 6.55625,-14.91456 3.43645,-8.13181 16.10515,-33.43497 21.17934,-42.30146 2.98039,-5.20783 8.75467,-13.90781 17.25652,-26 39.14072,-55.6699 92.98992,-46.82584 81.18326,13.33333 -5.59059,28.48606 -30.39252,69.89642 -52.81992,88.19039 -1.47691,1.20471 -5.68529,4.96957 -9.35196,8.36636 -3.66667,3.39678 -11.16667,9.5807 -16.66667,13.74203 -5.5,4.16133 -10.3,7.90457 -10.66666,8.31831 -0.36667,0.41374 -4.13311,3.10521 -8.36987,5.98104 -6.18631,3.19964 -7.97339,7.68372 -9.69965,13.73521 -0.9363,3.0392 2.54605,1.72788 7.08162,-2.66666 5.26415,-5.10047 16.34941,-5.78811 29.56323,-1.83385 4.41598,1.32149 12.04731,2.16718 19.55613,2.16718 19.54134,0 24.53521,2.74643 24.53521,13.49343 0,19.76327 -18.78753,27.33977 -48.96591,19.74661 -8.80426,-2.21523 -7.83579,-4.93932 -9.51374,26.75996 -1.55038,29.28921 -3.72021,38.47664 -4.45606,51.59731 -1.40022,24.967 -20.51708,54.71859 -53.73097,45.71392 z m 21.49609,-32.97789 c 0.41015,-1.28334 1.28059,-3.53334 1.93431,-5 4.32465,-9.70259 6.25167,-29.12727 6.56739,-40.2571 0.21547,-7.59564 1.24661,-54.36523 -0.54095,-54.36523 -2.53846,1.44694 -0.84634,3.26447 -1.37299,5.95566 -0.65683,3.3 -1.58483,10.8 -2.75027,16.66666 -4.62421,23.27744 -7.10484,44.3075 -9.46057,69.66667 -0.89766,9.66312 3.17923,14.98 5.62307,7.33334 z M 375.6776,320.72658 c 2.87137,-1.88139 11.62516,-11.42287 22.53188,-24.55936 5.17199,-6.22936 16.54456,-23.53599 19.89984,-31.89008 1.32538,-3.3 2.9243,-7.2 3.55314,-8.66667 4.11288,-9.59254 5.97032,-19.82896 5.38314,-29.66666 -0.44969,-7.53407 -12.89659,2.33057 -19.91506,15.78344 -1.68813,3.23577 -4.14109,7.68322 -5.45104,9.88322 -2.92859,4.91847 -14.52506,27.86494 -16.84568,33.33334 -0.93361,2.2 -3.25819,7.30861 -5.16572,11.35247 -0.80217,1.70057 -11.09117,26.64753 -8.14841,26.64753 0.4257,0 2.29676,-0.99775 4.15791,-2.21723 z M 123.53319,420.74256 c -8.40096,-1.90723 -16.0902,-5.57527 -23.765803,-9.31759 -7.53482,-3.66632 -19.8717,-14.63409 -27.53716,-24.48116 -26.74492,-31.96588 -29.13089,-67.81582 -29.648803,-108 0.150553,-19.71048 2.785143,-51.7265 4.068993,-60.45989 2.9057,-19.76605 8.09372,-39.13415 14.08013,-58.20678 15.41444,-49.57354 52.814953,-98.043941 92.135983,-119.406591 1.46666,-0.79682 5.96666,-3.26877 10,-5.49321 4.03333,-2.22445 10.33333,-5.09546 14,-6.38003 3.66666,-1.28457 7.86666,-2.82628 9.33333,-3.42602 3.66082,-1.49697 15.44299,-4.59976 26.85744,-7.18006 16.88898,-3.81785 51.79554,-4.52911 81.12893,1.8859 58.91358,12.88399 85.05435,77.76595 76.54316,133.062751 -3.71219,14.54584 -9.82773,28.82145 -18.14513,41.42325 -18.29873,24.19473 -42.80601,42.79553 -70.3844,53.42113 -9.92046,3.82222 -13.43279,4.84202 -28,8.1297 -3.66666,0.82753 -8.76666,2.02741 -11.33333,2.66638 -2.56667,0.63898 -9.10647,1.64216 -14.5329,2.22929 -11.40045,1.23351 -11.30631,1.12754 -13.38483,15.06751 -1.83828,12.32876 -3.36329,21.32782 -6.1007,36 -1.16296,6.23334 -2.67882,15.23334 -3.36857,20 -3.40414,15.12816 -5.08585,30.40654 -9.49219,45.33334 -6.9956,22.43987 -16.88644,31.41946 -36.45415,41.769 -2.7394,1.52249 -31.225,2.60105 -36,1.36308 z m 9.86538,-63.17314 c 6.42016,-12.31736 17.47287,-85.32132 19.53499,-93.62561 0.86759,-3.49384 0.68236,-3.66667 -3.92969,-3.66667 -15.46355,-0.96208 -28.89878,-8.77207 -30.0972,-26 0,-16.31004 12.57024,-25.37195 30.84719,-22.2378 10.96644,1.88053 11.27435,1.76095 12.24001,-4.75384 9.26387,-37.26461 1.91277,-105.16894 51.08906,-107.00836 28.32271,0 31.3152,9.54003 21.12092,67.33333 -0.0148,7.89715 -9.28049,46.32118 -6.17165,46 0.63774,-0.0659 3.71657,-0.9 6.8343,-2 50.13152,-11.09206 81.20688,-48.40937 70.0268,-100.57993 -2.26861,-7.71065 -2.55532,-8.38974 -6.79165,-16.086741 -8.15278,-14.81274 -24.35264,-22.03089 -37.23515,-25.52509 -8.85435,-2.40162 -43.19603,-2.43473 -51.33334,-0.0495 -43.19827,10.24148 -74.90583,45.115661 -91.85854,84.907931 -30.058543,56.48806 -29.923583,134.02071 -14.80813,178.57806 5.75533,16.96558 23.96488,37.31361 30.53205,24.71422 z"
       id="path1" />
  </g>
</svg>
