<svg
   xmlns="http://www.w3.org/2000/svg"
   version="1.1"
   viewBox="0 0 512 400">
    <path
       d="m 291.75551,134.65482 c -13.738,1.331 -39.547,2.238 -47.54,15.617 -7.009,11.733 -2.46,35.582 -2.46,48.933 v 122.99999 c 0,13.49 -5.165,40.818 3.755,51.787 9.341,11.486 36.977,6.213 50.245,6.213 h 95 c 18.181,0 36.953,1.346 55,-1.075 55.256,-7.413 84.644,-70.964 54.683,-117.925 -10.817,-16.955 -28.943,-29.48899 -48.683,-33.44499 -7.27,-1.457 -22.429,1.472 -28.144,-2.834 -3.777,-2.846 -4.942,-9.58 -6.776,-13.721 -4.087,-9.227 -9.114,-17.989 -15.257,-26 -25.031,-32.639 -68.045,-54.596 -109.823,-50.55 m -96,2.452 c -19.685,1.032 -14,32.153 -14,45.098 v 146.99999 c 0,13.473 -6.698,50.913 15,50.404 20.279,-0.475 15,-31.344 15,-44.404 V 187.20482 c 0,-13.63 6.395,-51.272 -16,-50.098 m 76,213.09799 v -134.99999 -34 c 0.002,-3.741 -0.94,-9.626 2.094,-12.485 4.461,-4.202 15.139,-4.077 20.906,-4.391 22.213,-1.207 45.218,6.273 63,19.447 14.689,10.883 25.932,25.582 32.938,42.429 3.743,8.99999 3.753,22.34899 10.663,29.53199 8.379,8.71 18.559,1.776 28.399,0.758 13.85,-1.434 27.622,2.379 37.946,11.951 24.166,22.404 17.734,64.528 -12.946,77.638 -11.499,4.913 -23.785,4.121 -36,4.121 h -51 -96 m -138.993,-175.16299 c -15.78,4.013 -11.007,28.085 -11.007,40.163 v 124.99999 c 0,12.274 -4.419,43.239 16.997,39.144 16.899,-3.232 12.003,-27.723 12.003,-40.144 V 213.20482 c 0,-12.323 3.899,-43.731 -17.993,-38.163 m -58.005795,53.103 c -14.9647,1.351 -14.0012,18.05799 -14.0012,29.05999 v 94 c 10e-5,11.11 -0.0577,29.242 15.999,28.39 15.2537,-0.81 14.001,-17.472 14.001,-28.39 v -95 c 0,-11.123 0.4377,-29.54299 -15.9988,-28.05999 m -63.9841,49.07099 c -17.7838102,6.113 -15.5334202,61.743 9.9658,52.978 17.7838,-6.113 15.5334,-61.743 -9.9658,-52.978 z" 
       fill="currentColor"/>
    <path
       d="m 491.935,245.78078 c -3.136,8.5 -8.363,16.344 -15.072,22.685 -5.806,5.487 -13.383,9.91 -20.863,12.453 -6.433,2.188 -12.068,3.004 -19,3.599 -36.543,3.139 -74.289,1.263 -111,1.263 -15.061,0 -35.54,0.156 -50,-0.013 -6.306,-0.074 -11.512,0.851 -16.213,-3.167 -4.618,-3.946 -3.768,-11.439 -3.784,-15.82 -0.029,-7.701 -0.003,-21.507 -0.003,-30 v -119 c 0,-7.458 -0.119,-17.979995 0.027,-24.999995 0.098,-4.696 -0.101,-8.308 2.638,-12.755 2.118,-3.437 6.036,-5.064 9.339,-5.996 6.689,-1.885 14.504,-2.811 21.996,-3.496 18.013,-1.649 34.318,1.9 51,7.979 5.586,2.036 10.102,4.29 15,7.369 9.848,6.191 19.579,14.054 27.266,22.904995 6.925,7.974 12.607,15.597 16.813,24.994 4.48128,9.47397 6.49384,15.35593 7.84579,27.79082 0,0 15.44021,0.15618 21.07521,0.22218 9.844,0.115 18.117,1.047 27,3.823 7.405,2.315 13.41,6.281 18.997,11.378 7.281,6.641 28.18135,25.46918 16.938,68.786 M 195,81.780785 196.49191,282.19181 M 135,112.78078 v 169 m -60,-109 V 273.82931 M 24.043687,215.78078 v 16" 
       fill="currentColor"/>
</svg>
