<svg
   xmlns="http://www.w3.org/2000/svg"
   version="1.1"
   viewBox="0 0 682.66669 682.66669">
    <path
       id="path845"
       d="M 322.66668,21.899201 C 418.34209,24.237868 500.35678,49.087142 564.00002,112 c 10.44667,10.4464 20.34933,20.49787 29.59467,32 9.00266,11.20001 17.85333,23.68801 25.056,36.00001 3.516,6.00933 5.75066,10.792 9.02,17.33333 26.09333,52.21867 37.53333,109.728 33.54267,168.00001 -2.29867,33.57733 -10.35334,65.85066 -22.62934,97.33333 -14.72667,37.768 -37.88,73.612 -66.58933,102.66667 -10.70667,10.836 -21.37867,20.62267 -33.328,29.89867 -11.36934,8.82533 -23.75867,16.89467 -36.00001,24.23467 -5.09733,3.05733 -9.184,5.44266 -14.66666,8.20266 -31.46134,15.84267 -64.09867,27.65067 -98.66667,31.95067 -32.77067,4.07734 -65.92134,4.32267 -98.66667,-0.18666 -24.15734,-3.328 -49.13734,-10.21867 -72.00001,-20.00267 -40.26266,-17.232 -76.984,-41.38 -107.9948,-72.764 -17.529467,-17.74 -34.516801,-41.14267 -46.871468,-62.66667 -7.948267,-13.84667 -15.7804,-26.868 -21.540134,-42.66667 -9.7864,-26.84267 -16.3596,-53.42534 -20.356001,-81.33334 -3.311866,-23.128 -2.057333,-48.68267 -0.4516,-72 C 34.503023,104.05736 199.99901,24.621928 322.66668,21.899201 M 134.66667,240.00001 c 130.51952,-34.60271 308.48402,-19.89128 426.66668,45.33333 m -409.33334,54.66667 c 105.28274,-30.12283 265.58784,-19.13373 369.33334,38.66667 m -350.66668,64 c 108.5174,-20.161 212.39038,-8.77235 308.00001,30.66667"
       style="fill:none;stroke:currentColor;stroke-width:30;stroke-miterlimit:4;stroke-dasharray:none;stroke-linecap:round" />
</svg>
