<svg version="1.1" id="Capa_1" xmlns="http://www.w3.org/2000/svg" viewBox="0 0 612 612">
	<path d="M361.684,612c-53.644,0-190.818-30.168-190.818-167.922V280.24h-22.945
		c-1.352,0-3.216,0.271-5.253,0.512c-3.592,0.425-5.582,0.898-9.521,0.898c-21.65,0-20.221-16.542-20.221-18.425v-81.639
		c0-15.055,15.393-25.079,21.506-27.416c20.53-7.687,98.808-63.938,98.808-123.047C233.239,16.436,243.823,0,259.361,0h91.209
		c5.195,0,9.985,2.038,13.471,5.755c6.77,7.194,8.228,17.334,7.735,25.475c-0.077,1.419,1.883,2.743,1.883,3.863v90.533h78.239
		c16.484,0,27.986,18.184,27.986,36.203v101.396c0,18.223-17.45,18.425-18.107,18.425c-2.598,0-5.745-0.618-7.146-1.023
		c-0.956-0.28-2.376-0.387-2.733-0.387h-78.239v152.134c0,3.244,4.51,24.064,28.314,24.064c8.497,0,22.606-2.317,35.778-7.406
		c7.29-2.714,14.195-2.328,20.752,0.733c6.538,3.013,11.482,8.739,13.896,15.673c2.201,6.297,5.727,18.339,9.976,32.293
		l1.844,6.306c4.78,15.74,9.687,32.012,13.414,42.866c3.621,10.623,0.502,22.81-9.271,30.352C443.314,612,382.128,612,361.684,612
		z M147.921,251.251h33.307c7.996,0,18.608,6.489,18.608,14.495v178.333c0,113.97,116.259,138.933,161.848,138.933
		c17.991,0,71.654,0,108.881-28.643c-3.775-11.221-9.02-26.808-13.616-41.9l-2.183-6.307c-3.602-11.878-7.146-23.147-9.251-29.424
		c-14.398,5.312-30.042,8.691-43.484,8.691c-45.126,0-57.342-40.568-57.342-52.041V265.746c0-8.005,2.365-14.495,10.361-14.495
		h95.863v-89.422c0-2.308-4.5-5.06-4.992-7.213H355.05c-7.996,0-10.361-6.489-10.361-14.495V35.093
		c0-1.622-1.961-3.554-1.835-5.61c0-0.155-2.038-0.319-2.028-0.493h-78.857c-0.405,0.724-0.753,1.632-0.792,2.192
		c0,78.114-92.387,141.086-116.529,150.115c-1.13,0.435-2.752,1.97-2.752,3.245v67.598c0-0.058-1.052-0.116-0.569-0.174
		C144.687,251.569,145.71,251.251,147.921,251.251z"
		fill="currentColor"
	/>
</svg>
