<svg id="regular" enable-background="new 0 0 24 24" height="512" viewBox="0 0 24 24" width="512" xmlns="http://www.w3.org/2000/svg"><path d="m23.25 0h-20.967c-.308 0-.586.189-.698.477l-1.533 3.914c-.034.087-.052.179-.052.273v15.65c0 .414.336.75.75.75h4.874v2.186c0 .414.336.75.75.75h3.07c.529 0 .489-.273 3.366-2.936h4.302c.193 0 .379-.074.519-.208l6.138-5.867c.147-.141.231-.338.231-.542v-13.697c0-.414-.336-.75-.75-.75zm-.75 14.126-5.688 5.438h-4.302c-.193 0-.379.075-.519.208l-2.847 2.728h-2.02v-2.186c0-.414-.336-.75-.75-.75h-4.874v-14.758l1.295-3.306h19.705z"/><path d="m3.685 17.239h5.12v2.098c0 .66.791.994 1.265.546l2.804-2.644h3.914c.191 0 .375-.073.515-.204l3.528-3.327c.15-.142.235-.339.235-.546v-10.455c0-.414-.336-.75-.75-.75h-16.631c-.414 0-.75.336-.75.75v13.782c0 .414.336.75.75.75zm.75-13.782h15.131v9.382l-3.076 2.9h-3.914c-.191 0-.375.073-.515.204l-1.756 1.656v-1.11c0-.414-.336-.75-.75-.75h-5.12z"/><path d="m17.5 11.25v-4.5c0-.992-1.5-.993-1.5 0v4.5c0 .992 1.5.993 1.5 0z"/><path d="m12.532 11.25v-4.5c0-.992-1.5-.993-1.5 0v4.5c0 .992 1.5.993 1.5 0z"/></svg>